<?xml version="1.0" encoding="UTF-8"?><svg id="Layer_1" xmlns="http://www.w3.org/2000/svg" xmlns:xlink="http://www.w3.org/1999/xlink" viewBox="0 0 150 150"><defs><style>.cls-1{fill:url(#linear-gradient);}.cls-2,.cls-3{fill:#fff;}.cls-3{isolation:isolate;opacity:.42;}</style><linearGradient id="linear-gradient" x1="-50.92" y1="145.07" x2="206.31" y2="402.3" gradientTransform="translate(-3 349) scale(1 -1)" gradientUnits="userSpaceOnUse"><stop offset="0" stop-color="#056d8b"/><stop offset=".25" stop-color="#257a82"/><stop offset=".5" stop-color="#039cb3"/><stop offset=".75" stop-color="#46c2c8"/><stop offset="1" stop-color="#66c9d7"/></linearGradient></defs><path class="cls-1" d="M150,74.96c.02,41.42-33.53,75.01-74.95,75.03-28.17,.02-53.97-15.75-66.8-40.83L1.83,91.42C-7.23,51.01,18.19,10.9,58.6,1.84c40.41-9.06,80.52,16.35,89.58,56.77,1.2,5.37,1.81,10.86,1.82,16.36Z"/><polygon class="cls-2" points="68.39 109.17 50.12 109.17 48.6 103.09 65.04 95.77 68.39 109.17"/><path class="cls-2" d="M51.33,40.76h-15.26L1.83,91.42c.67,3.1,1.56,6.15,2.65,9.13,1.06,2.96,2.32,5.85,3.76,8.65l10.9-16.15h45.2l-13.02-52.29Zm-23.2,38.94l10.69-15.86,3.97,15.86h-14.65Z"/><polygon class="cls-3" points="48.6 103.09 56.38 100.72 65.04 95.77 64.35 93.02 55.57 91.82 46.09 93.02 48.6 103.09"/><polygon class="cls-3" points="76.64 90.6 85.23 88.14 94.42 82.68 94.95 79.71 86.42 78.44 78.56 79.71 76.64 90.6"/><path class="cls-2" d="M129.25,72.57c-.69-.76-1.51-1.39-2.42-1.86,.72-.59,1.37-1.27,1.92-2.02,2.12-2.54,3.6-5.54,4.33-8.77,1.03-5.12-.49-10.42-4.07-14.22-3.32-3.46-7.74-4.95-14.78-4.95h-28.79l-4.53,25.66h-12.47l3.32,13.3h37.87c4.87,0,6.48,1.44,7.21,2.55h0c1.12,1.54,1.53,3.48,1.12,5.34-.4,2.15-1.51,4.11-3.16,5.55-2,1.86-4.6,2.7-8.42,2.7h-14.28l2.32-13.2-17.78,7.93-3.27,18.59h33.37c8,0,13.99-1.98,18.96-6.22,4.41-3.84,7.29-9.13,8.12-14.91,1.09-5.59-.62-11.37-4.57-15.47Zm-11.97-12.5c-.34,1.63-1.19,3.11-2.44,4.21-1.24,1.11-2.88,2.13-6.92,2.13h-10.63l2.24-12.36h10.97c3.89,0,5.16,.97,5.94,2,.81,1.17,1.11,2.61,.84,4.01Z"/></svg>