<svg xmlns="http://www.w3.org/2000/svg" version="1.1" xmlns:xlink="http://www.w3.org/1999/xlink" width="512" height="512" x="0" y="0" viewBox="0 0 48 48" style="enable-background:new 0 0 512 512" xml:space="preserve" class=""><g transform="matrix(1,0,0,-1,0,48.00193214416503)"><path fill="#ef4444" d="M.442 30.055c7.148 7.143 18.255 8.453 26.875 3.224l12.335-7.482 2.009 2.175c1.161 1.257 3.257.677 3.607-.998l2.688-12.9a2.104 2.104 0 0 0-2.325-2.517L32.56 13.213c-1.698.215-2.442 2.259-1.282 3.516l1.249 1.352-8.038 7.269c-6.03 5.455-15.002 6.549-22.23 2.34a1.503 1.503 0 0 0-1.817 2.365z" opacity="1" data-original="#ed7161" class=""></path></g></svg>