<svg xmlns="http://www.w3.org/2000/svg" version="1.1" xmlns:xlink="http://www.w3.org/1999/xlink" width="512" height="512" x="0" y="0" viewBox="0 0 48 48" style="enable-background:new 0 0 512 512" xml:space="preserve" class=""><g transform="matrix(-1,-1.2246467991473532e-16,1.2246467991473532e-16,-1,47.99915566848358,48.000627517700195)"><path fill="#3b82f6" d="M13.458 11.771.524 22.857a1.504 1.504 0 0 0 0 2.282L13.458 36.23c1.286 1.101 3.128-.439 2.275-1.898l-3.549-6.084 33.56 3.771c1.917.216 3.017-2.108 1.638-3.456L42.708 24l4.674-4.569c1.379-1.342.278-3.666-1.632-3.45l-33.566 3.771 3.549-6.084c.854-1.464-.989-2.997-2.275-1.897z" opacity="1" data-original="#54bbff" class=""></path></g></svg>