<svg xmlns="http://www.w3.org/2000/svg" version="1.1" xmlns:xlink="http://www.w3.org/1999/xlink" width="512" height="512" x="0" y="0" viewBox="0 0 48 48" style="enable-background:new 0 0 512 512" xml:space="preserve" class=""><g transform="matrix(-1,0,0,1,48.00067936477717,0)"><path fill="#b354cf" d="M.852 1.78a.962.962 0 0 0-.851 1l.733 14.4a.958.958 0 0 0 .345.688l5.058 4.218c.65.54 1.638.056 1.595-.782l-.45-8.773 17.352 15.933a1.974 1.974 0 0 0 3.202-.812l2.542-7.385 15.687 27.179a1.031 1.031 0 0 0 1.85-.906L31.432 10.702c-.66-1.513-2.774-1.596-3.552-.139l-4.546 8.524-11.86-11.832 9.15-1.107c.842-.102 1.155-1.147.506-1.687L16.071.243a.977.977 0 0 0-.744-.218zm6.194 6.153-.007-.142.149-.018z" opacity="1" data-original="#9a7baa" class=""></path></g></svg>